<?xml version="1.0" standalone="no"?>
<!DOCTYPE svg PUBLIC "-//W3C//DTD SVG 20010904//EN"
 "http://www.w3.org/TR/2001/REC-SVG-20010904/DTD/svg10.dtd">
<svg version="1.0" xmlns="http://www.w3.org/2000/svg"
 width="260.000000pt" height="260.000000pt" viewBox="0 0 260.000000 260.000000"
 preserveAspectRatio="xMidYMid meet">
<metadata>
Created by potrace 1.14, written by Peter Selinger 2001-2017
</metadata>
<g transform="translate(0.000000,260.000000) scale(0.100000,-0.100000)"
fill="#000000" stroke="none">
<path d="M6 2569 c-3 -17 -6 -602 -6 -1300 l0 -1269 1300 0 1300 0 0 1300 0
1300 -1268 0 c-973 0 -1271 -3 -1280 -12 -9 -9 -12 -9 -12 0 0 26 -28 10 -34
-19z m1483 -410 c54 -7 104 -15 111 -19 8 -5 1 -52 -25 -169 -19 -89 -35 -166
-35 -170 0 -4 36 -15 81 -24 169 -33 309 -130 367 -254 25 -53 27 -68 26 -178
-1 -135 -15 -191 -75 -291 -103 -171 -275 -272 -503 -296 l-116 -12 -10 -35
c-6 -20 -15 -64 -22 -99 l-11 -62 -149 0 c-137 0 -149 1 -144 18 16 57 37 174
32 179 -3 3 -27 8 -53 10 -186 17 -306 94 -375 239 -46 99 -54 258 -17 374 66
205 276 350 585 404 48 9 88 17 89 18 2 2 15 59 29 128 15 69 29 134 32 144 6
18 2 19 -67 12 -141 -13 -245 -53 -280 -109 -17 -27 -20 -43 -15 -101 l5 -68
-47 4 c-105 10 -159 62 -149 145 6 56 28 88 84 123 132 84 388 119 652 89z"/>
<path d="M1120 1658 c-199 -75 -289 -224 -290 -479 0 -108 15 -172 56 -231 28
-40 88 -81 134 -92 26 -5 26 -4 48 97 11 56 51 241 87 411 36 170 65 311 65
313 0 9 -52 -1 -100 -19z"/>
<path d="M1432 1283 c-46 -219 -86 -406 -89 -416 -4 -17 0 -18 44 -12 204 27
364 249 366 505 1 123 -19 188 -79 246 -38 36 -113 74 -148 74 -6 0 -47 -173
-94 -397z"/>
</g>
</svg>
